<svg width="34" height="36" viewBox="0 0 34 36" fill="none" xmlns="http://www.w3.org/2000/svg">
<path d="M33.2 2.4H29V0.6C29 0.2682 28.7318 0 28.4 0H24.2C23.8682 0 23.6 0.2682 23.6 0.6V2.4H10.4V0.6C10.4 0.2682 10.1318 0 9.80001 0H5.60001C5.26821 0 5.00001 0.2682 5.00001 0.6V2.4H0.800012C0.468212 2.4 0.200012 2.6682 0.200012 3V9.6V35.4C0.200012 35.7318 0.468212 36 0.800012 36H33.2C33.5318 36 33.8 35.7318 33.8 35.4V9.6V3C33.8 2.6682 33.5318 2.4 33.2 2.4ZM24.8 1.2H27.8V3V4.8H24.8V3V1.2ZM6.20001 1.2H9.20001V3V4.8H6.20001V3V1.2ZM1.40001 3.6H5.00001V5.4C5.00001 5.7318 5.26821 6 5.60001 6H9.80001C10.1318 6 10.4 5.7318 10.4 5.4V3.6H23.6V5.4C23.6 5.7318 23.8682 6 24.2 6H28.4C28.7318 6 29 5.7318 29 5.4V3.6H32.6V9H1.40001V3.6ZM1.40001 34.8V10.2H32.6V34.8H1.40001Z" fill="#C3CAD6"/>
<path d="M21.8 13.8H17.6H16.4H12.2H11H5.60004V19.2V20.4V24.6V25.8V31.2H11H12.2H16.4H17.6H21.8H23H28.4V25.8V24.6V20.4V19.2V13.8H23H21.8ZM17.6 15H21.8V19.2H17.6V15ZM21.8 24.6H17.6V20.4H21.8V24.6ZM12.2 20.4H16.4V24.6H12.2V20.4ZM12.2 15H16.4V19.2H12.2V15ZM6.80004 15H11V19.2H6.80004V15ZM6.80004 20.4H11V24.6H6.80004V20.4ZM11 30H6.80004V25.8H11V30ZM16.4 30H12.2V25.8H16.4V30ZM21.8 30H17.6V25.8H21.8V30ZM27.2 30H23V25.8H27.2V30ZM27.2 24.6H23V20.4H27.2V24.6ZM27.2 15V19.2H23V15H27.2Z" fill="#C3CAD6"/>
</svg>
