<svg width="34" height="36" viewBox="0 0 34 36" fill="none" xmlns="http://www.w3.org/2000/svg">
<path d="M17.9804 22.7934C18.605 22.7448 19.1744 22.4262 19.544 21.918L25.1618 14.1516C25.334 13.9134 25.3082 13.5846 25.0994 13.3758C24.8906 13.1676 24.5618 13.1418 24.3236 13.3134L16.556 18.933C16.0496 19.3014 15.731 19.8708 15.6824 20.4954C15.6338 21.12 15.86 21.7314 16.3022 22.1736C16.7048 22.5768 17.2478 22.8 17.8124 22.8C17.8682 22.8 17.924 22.7976 17.9804 22.7934ZM16.8788 20.589C16.8998 20.3148 17.0402 20.0646 17.261 19.9038L21.9992 16.476L18.5726 21.213C18.4106 21.4356 18.1604 21.5754 17.8862 21.597C17.6132 21.615 17.345 21.5202 17.15 21.3252C16.9568 21.1314 16.8572 20.8626 16.8788 20.589Z" fill="#C3CAD6"/>
<path d="M31.4204 11.7384C31.4144 11.7258 31.4144 11.7126 31.4078 11.7C31.4006 11.688 31.3892 11.6814 31.3814 11.67C30.7748 10.6296 30.0572 9.6618 29.2424 8.7846L30.5312 7.4964L31.3796 8.3448L33.9248 5.799L31.3796 3.2538L28.8338 5.799L29.6828 6.648L28.394 7.9362C27.5168 7.1214 26.5496 6.4032 25.5086 5.7966C25.4972 5.7888 25.4906 5.7774 25.4786 5.7702C25.466 5.763 25.4528 5.7636 25.4402 5.757C23.5844 4.6878 21.4994 3.9756 19.2764 3.7146V3H20.1764C21.0038 3 21.6764 2.3274 21.6764 1.5C21.6764 0.6726 21.0032 0 20.1758 0H14.7758C13.9484 0 13.2758 0.6726 13.2758 1.5C13.2758 2.3274 13.9484 3 14.7758 3H15.6758V3.6936C15.0278 3.7626 14.381 3.8682 13.7414 4.0146C13.4186 4.0884 13.2164 4.4106 13.2908 4.7334C13.3646 5.0562 13.6868 5.259 14.0096 5.184C14.5616 5.0574 15.119 4.962 15.6776 4.8978L16.3214 4.848C16.5182 4.833 16.6994 4.8222 16.8758 4.8138V6C16.8758 6.3318 17.144 6.6 17.4758 6.6C17.8076 6.6 18.0758 6.3318 18.0758 6V4.818C20.3324 4.9218 22.4588 5.5278 24.3494 6.525L23.7578 7.5492C23.5922 7.8366 23.6906 8.2032 23.9774 8.3688C24.0716 8.4234 24.1748 8.4492 24.2768 8.4492C24.4844 8.4492 24.686 8.3418 24.797 8.1492L25.3868 7.1274C27.2642 8.3184 28.859 9.9132 30.05 11.7906L29.0282 12.3804C28.742 12.546 28.6436 12.9126 28.8098 13.2C28.9214 13.3926 29.1224 13.5 29.33 13.5C29.432 13.5 29.5352 13.4742 29.6294 13.4196L30.6536 12.828C31.6646 14.7456 32.2724 16.9068 32.363 19.1994H31.178C30.8462 19.1994 30.578 19.4676 30.578 19.7994C30.578 20.1312 30.8462 20.3994 31.178 20.3994H32.363C32.2724 22.692 31.6646 24.8532 30.6536 26.7708L29.6294 26.1792C29.3426 26.0136 28.9754 26.1108 28.8098 26.3988C28.6442 26.6862 28.7426 27.0528 29.0294 27.2184L30.0512 27.8082C28.8602 29.6856 27.2654 31.2804 25.388 32.4714L24.7982 31.4496C24.632 31.1616 24.2642 31.0638 23.9786 31.23C23.6912 31.3956 23.5928 31.7628 23.759 32.0496L24.3506 33.0738C22.46 34.071 20.3336 34.677 18.077 34.7808V33.6C18.077 33.2682 17.8088 33 17.477 33C17.1452 33 16.877 33.2682 16.877 33.6V34.7856C15.9188 34.7526 14.9576 34.6326 14.0114 34.4154C13.6886 34.338 13.3664 34.5432 13.2926 34.866C13.2182 35.1888 13.4204 35.511 13.7432 35.5848C14.9408 35.8608 16.1642 36 17.378 36C17.4074 36 17.4356 35.9982 17.465 35.9976C17.4692 35.9976 17.4722 36 17.4758 36C17.4806 36 17.4848 35.997 17.4896 35.997C20.3738 35.9772 23.0798 35.1984 25.421 33.8532C25.4396 33.8448 25.4594 33.8406 25.4774 33.8298C25.4894 33.8226 25.496 33.8112 25.5074 33.8034C27.9308 32.391 29.9558 30.3684 31.3712 27.9468C31.3826 27.9306 31.397 27.918 31.4072 27.9C31.4144 27.8874 31.4138 27.8742 31.4198 27.8616C32.7902 25.4856 33.578 22.734 33.578 19.8C33.578 16.866 32.7902 14.1144 31.4204 11.7384ZM31.379 4.9506L32.2274 5.799L31.379 6.648L30.53 5.799L31.379 4.9506ZM16.8758 3.6126V1.8H14.7758C14.6108 1.8 14.4758 1.665 14.4758 1.5C14.4758 1.335 14.6108 1.2 14.7758 1.2H20.1758C20.3408 1.2 20.4758 1.335 20.4758 1.5C20.4758 1.665 20.3408 1.8 20.1758 1.8H18.0758V3.6126C17.867 3.6042 17.6678 3.6 17.4758 3.6C17.459 3.6 17.4398 3.6012 17.423 3.6012C17.408 3.6012 17.393 3.6 17.378 3.6C17.2796 3.6 17.1812 3.6066 17.0828 3.6084C17.0132 3.6102 16.9478 3.6096 16.8758 3.6126Z" fill="#C3CAD6"/>
<path d="M12.0758 8.4H9.07583C8.74403 8.4 8.47583 8.6682 8.47583 9C8.47583 9.3318 8.74403 9.6 9.07583 9.6H12.0758C12.4076 9.6 12.6758 9.3318 12.6758 9C12.6758 8.6682 12.4076 8.4 12.0758 8.4Z" fill="#C3CAD6"/>
<path d="M12.0758 12.6H6.07583C5.74403 12.6 5.47583 12.8682 5.47583 13.2C5.47583 13.5318 5.74403 13.8 6.07583 13.8H12.0758C12.4076 13.8 12.6758 13.5318 12.6758 13.2C12.6758 12.8682 12.4076 12.6 12.0758 12.6Z" fill="#C3CAD6"/>
<path d="M12.0758 16.8H3.07583C2.74403 16.8 2.47583 17.0682 2.47583 17.4C2.47583 17.7318 2.74403 18 3.07583 18H12.0758C12.4076 18 12.6758 17.7318 12.6758 17.4C12.6758 17.0682 12.4076 16.8 12.0758 16.8Z" fill="#C3CAD6"/>
<path d="M12.0758 21H0.675806C0.344006 21 0.0758057 21.2682 0.0758057 21.6C0.0758057 21.9318 0.344006 22.2 0.675806 22.2H12.0758C12.4076 22.2 12.6758 21.9318 12.6758 21.6C12.6758 21.2682 12.4076 21 12.0758 21Z" fill="#C3CAD6"/>
<path d="M12.0758 25.2H4.27578C3.94398 25.2 3.67578 25.4682 3.67578 25.8C3.67578 26.1318 3.94398 26.4 4.27578 26.4H12.0758C12.4076 26.4 12.6758 26.1318 12.6758 25.8C12.6758 25.4682 12.4076 25.2 12.0758 25.2Z" fill="#C3CAD6"/>
<path d="M12.0758 29.4H7.87582C7.54402 29.4 7.27582 29.6682 7.27582 30C7.27582 30.3318 7.54402 30.6 7.87582 30.6H12.0758C12.4076 30.6 12.6758 30.3318 12.6758 30C12.6758 29.6682 12.4076 29.4 12.0758 29.4Z" fill="#C3CAD6"/>
</svg>
