<svg width="30" height="36" viewBox="0 0 30 36" fill="none" xmlns="http://www.w3.org/2000/svg">
<path d="M20.3484 0H0.900024V36H29.1V8.7516L20.3484 0ZM20.7 2.0484L27.0516 8.4H20.7V2.0484ZM2.10002 34.8V1.2H19.5V9.6H27.9V34.8H2.10002Z" fill="#C3CAD6"/>
<path d="M22.5 12.6H12.9C12.5688 12.6 12.3 12.8682 12.3 13.2C12.3 13.5318 12.5688 13.8 12.9 13.8H22.5C22.8312 13.8 23.1 13.5318 23.1 13.2C23.1 12.8682 22.8312 12.6 22.5 12.6Z" fill="#C3CAD6"/>
<path d="M10.725 10.9314L8.14442 12.996L7.32422 12.1758C7.08962 11.9412 6.71042 11.9412 6.47582 12.1758C6.24122 12.4104 6.24122 12.7896 6.47582 13.0242L7.67582 14.2242C7.79222 14.3406 7.94582 14.4 8.10002 14.4C8.23202 14.4 8.36462 14.3568 8.47442 14.2686L11.4744 11.8686C11.7336 11.661 11.775 11.2836 11.568 11.025C11.3616 10.7658 10.9836 10.7244 10.725 10.9314Z" fill="#C3CAD6"/>
<path d="M22.5 19.2H12.9C12.5688 19.2 12.3 19.4682 12.3 19.8C12.3 20.1318 12.5688 20.4 12.9 20.4H22.5C22.8312 20.4 23.1 20.1318 23.1 19.8C23.1 19.4682 22.8312 19.2 22.5 19.2Z" fill="#C3CAD6"/>
<path d="M10.725 17.5314L8.14442 19.596L7.32422 18.7758C7.08962 18.5412 6.71042 18.5412 6.47582 18.7758C6.24122 19.0104 6.24122 19.3896 6.47582 19.6242L7.67582 20.8242C7.79222 20.9406 7.94582 21 8.10002 21C8.23202 21 8.36462 20.9568 8.47442 20.8686L11.4744 18.4686C11.7336 18.261 11.775 17.8836 11.568 17.625C11.3616 17.3658 10.9836 17.3244 10.725 17.5314Z" fill="#C3CAD6"/>
<path d="M22.5 25.8H12.9C12.5688 25.8 12.3 26.0682 12.3 26.4C12.3 26.7318 12.5688 27 12.9 27H22.5C22.8312 27 23.1 26.7318 23.1 26.4C23.1 26.0682 22.8312 25.8 22.5 25.8Z" fill="#C3CAD6"/>
<path d="M10.725 24.1314L8.14442 26.196L7.32422 25.3758C7.08962 25.1412 6.71042 25.1412 6.47582 25.3758C6.24122 25.6104 6.24122 25.9896 6.47582 26.2242L7.67582 27.4242C7.79222 27.5406 7.94582 27.6 8.10002 27.6C8.23202 27.6 8.36462 27.5568 8.47442 27.4686L11.4744 25.0686C11.7336 24.861 11.775 24.4836 11.568 24.225C11.3616 23.9658 10.9836 23.9244 10.725 24.1314Z" fill="#C3CAD6"/>
</svg>
