<svg width="30" height="36" viewBox="0 0 30 36" fill="none" xmlns="http://www.w3.org/2000/svg">
<path d="M22.5 13.2H7.50002C7.16882 13.2 6.90002 13.4682 6.90002 13.8C6.90002 14.1318 7.16882 14.4 7.50002 14.4H22.5C22.8312 14.4 23.1 14.1318 23.1 13.8C23.1 13.4682 22.8312 13.2 22.5 13.2Z" fill="#C3CAD6"/>
<path d="M7.50002 9.6H13.5C13.8312 9.6 14.1 9.3318 14.1 9C14.1 8.6682 13.8312 8.4 13.5 8.4H7.50002C7.16882 8.4 6.90002 8.6682 6.90002 9C6.90002 9.3318 7.16882 9.6 7.50002 9.6Z" fill="#C3CAD6"/>
<path d="M22.5 18H7.50002C7.16882 18 6.90002 18.2682 6.90002 18.6C6.90002 18.9318 7.16882 19.2 7.50002 19.2H22.5C22.8312 19.2 23.1 18.9318 23.1 18.6C23.1 18.2682 22.8312 18 22.5 18Z" fill="#C3CAD6"/>
<path d="M22.5 22.8H7.50002C7.16882 22.8 6.90002 23.0682 6.90002 23.4C6.90002 23.7318 7.16882 24 7.50002 24H22.5C22.8312 24 23.1 23.7318 23.1 23.4C23.1 23.0682 22.8312 22.8 22.5 22.8Z" fill="#C3CAD6"/>
<path d="M22.5 27.6H7.50002C7.16882 27.6 6.90002 27.8682 6.90002 28.2C6.90002 28.5318 7.16882 28.8 7.50002 28.8H22.5C22.8312 28.8 23.1 28.5318 23.1 28.2C23.1 27.8682 22.8312 27.6 22.5 27.6Z" fill="#C3CAD6"/>
<path d="M20.3484 0H0.900024V36H29.1V8.7516L20.3484 0ZM20.7 2.0484L27.0516 8.4H20.7V2.0484ZM2.10002 34.8V1.2H19.5V9.6H27.9V34.8H2.10002Z" fill="#C3CAD6"/>
</svg>
