<svg width="30" height="36" viewBox="0 0 30 36" fill="none" xmlns="http://www.w3.org/2000/svg">
<path d="M20.3484 0H0.900024V36H29.1V8.7516L20.3484 0ZM20.7 2.0484L27.0516 8.4H20.7V2.0484ZM2.10002 34.8V1.2H19.5V9.6H27.9V34.8H2.10002Z" fill="#3464E0"/>
<path d="M22.5 12.6H12.9C12.5688 12.6 12.3 12.8682 12.3 13.2C12.3 13.5318 12.5688 13.8 12.9 13.8H22.5C22.8312 13.8 23.1 13.5318 23.1 13.2C23.1 12.8682 22.8312 12.6 22.5 12.6Z" fill="#3464E0"/>
<path d="M10.7251 10.9314L8.14448 12.996L7.32428 12.1758C7.08968 11.9412 6.71048 11.9412 6.47588 12.1758C6.24128 12.4104 6.24128 12.7896 6.47588 13.0242L7.67588 14.2242C7.79228 14.3406 7.94588 14.4 8.10008 14.4C8.23208 14.4 8.36468 14.3568 8.47448 14.2686L11.4745 11.8686C11.7337 11.661 11.7751 11.2836 11.5681 11.025C11.3617 10.7658 10.9837 10.7244 10.7251 10.9314Z" fill="#3464E0"/>
<path d="M22.5 19.2H12.9C12.5688 19.2 12.3 19.4682 12.3 19.8C12.3 20.1318 12.5688 20.4 12.9 20.4H22.5C22.8312 20.4 23.1 20.1318 23.1 19.8C23.1 19.4682 22.8312 19.2 22.5 19.2Z" fill="#3464E0"/>
<path d="M10.7251 17.5314L8.14448 19.596L7.32428 18.7758C7.08968 18.5412 6.71048 18.5412 6.47588 18.7758C6.24128 19.0104 6.24128 19.3896 6.47588 19.6242L7.67588 20.8242C7.79228 20.9406 7.94588 21 8.10008 21C8.23208 21 8.36468 20.9568 8.47448 20.8686L11.4745 18.4686C11.7337 18.261 11.7751 17.8836 11.5681 17.625C11.3617 17.3658 10.9837 17.3244 10.7251 17.5314Z" fill="#3464E0"/>
<path d="M22.5 25.8H12.9C12.5688 25.8 12.3 26.0682 12.3 26.4C12.3 26.7318 12.5688 27 12.9 27H22.5C22.8312 27 23.1 26.7318 23.1 26.4C23.1 26.0682 22.8312 25.8 22.5 25.8Z" fill="#3464E0"/>
<path d="M10.7251 24.1314L8.14448 26.196L7.32428 25.3758C7.08968 25.1412 6.71048 25.1412 6.47588 25.3758C6.24128 25.6104 6.24128 25.9896 6.47588 26.2242L7.67588 27.4242C7.79228 27.5406 7.94588 27.6 8.10008 27.6C8.23208 27.6 8.36468 27.5568 8.47448 27.4686L11.4745 25.0686C11.7337 24.861 11.7751 24.4836 11.5681 24.225C11.3617 23.9658 10.9837 23.9244 10.7251 24.1314Z" fill="#3464E0"/>
</svg>
